<?xml version="1.0" encoding="utf-8"?>
<svg version="1.1" id="Layer_1" xmlns="http://www.w3.org/2000/svg" xmlns:xlink="http://www.w3.org/1999/xlink" x="0px" y="0px"
	 viewBox="20 20 612 792" enable-background="new 0 0 612 792" fill="#ffffff" xml:space="preserve">
<path d="M440.6,610.2H208.1c-13.5,0-24.5-11-24.5-24.5v-257c0-5.5,3.1-11.6,8.6-17.7l71-71c4.3-4.3,11-9.2,17.7-9.2h165.2
	c13.5,0,24.5,11,24.5,24.5v330.5C471.2,600.4,452.9,610.2,440.6,610.2z M195.8,328.7v257c0,6.7,5.5,12.2,12.2,12.2h232.6
	c7.3,0,18.4-6.1,18.4-12.2V255.2c0-6.7-5.5-12.2-12.2-12.2H281.5v61.2c0,13.5-11,24.5-24.5,24.5H195.8z M204.4,316.4H257
	c6.7,0,12.2-5.5,12.2-12.2v-52.6L204.4,316.4z"/>
</svg>
