<?xml version="1.0" encoding="UTF-8" standalone="no"?>
<svg width="200px" height="200px" viewBox="60 50 80 90" version="1.1" xmlns="http://www.w3.org/2000/svg" >
    <g id="Page-1" stroke="none" stroke-width="1" fill="none" fill-rule="evenodd">
        <g id="Household_icon" fill="#45a018">
            <path d="M71.2446791,96.8065451 L71.2446791,133.755194 C71.2446791,134.942018 72.2075169,135.904856 73.3943412,135.904856 L127.687247,135.904856 C128.875084,135.904856 129.836909,134.942018 129.836909,133.755194 L129.836909,96.8065451 L137.410895,104.380532 C137.831503,104.800126 138.381841,105.009923 138.932179,105.009923 C139.481503,105.009923 140.030828,104.800126 140.451436,104.380532 C141.291639,103.541342 141.291639,102.180194 140.451436,101.339991 L129.835895,90.7264775 L129.835895,75.7143154 C129.835895,74.527491 128.874071,73.5646532 127.686233,73.5646532 L115.312247,73.5646532 C114.593666,73.5646532 113.961233,73.9193829 113.572044,74.4616127 L102.060557,62.9511397 C101.221368,62.110937 99.8612331,62.110937 99.0210304,62.9511397 L60.630152,101.341005 C59.7899493,102.180194 59.7899493,103.542356 60.630152,104.381545 C61.4703547,105.221748 62.8304899,105.221748 63.6706926,104.381545 L71.2446791,96.8065451 L71.2446791,96.8065451 Z M95.9379223,116.556883 L104.536571,116.556883 L104.536571,131.603505 L95.9379223,131.603505 L95.9379223,116.556883 Z M117.461909,77.8639775 L125.536571,77.8639775 L125.536571,86.4281667 L117.461909,78.3535045 L117.461909,77.8639775 L117.461909,77.8639775 Z M100.540287,67.510937 L125.537584,92.5072208 L125.537584,131.604518 L108.834882,131.604518 L108.834882,114.408234 C108.834882,113.220396 107.873057,112.258572 106.68522,112.258572 L93.7882601,112.258572 C92.6004223,112.258572 91.638598,113.22141 91.638598,114.408234 L91.638598,131.604518 L75.5440034,131.604518 L75.5440034,92.5072208 L100.540287,67.510937 L100.540287,67.510937 Z" id="Imported-Layers"></path>
        </g>
    </g>
</svg>
