<?xml version="1.0" encoding="UTF-8" standalone="no"?>
<svg width="200px" height="200px" viewBox="60 50 80 90" version="1.1" xmlns="http://www.w3.org/2000/svg">
    <g id="Page-1" stroke="none" stroke-width="1" fill="none" fill-rule="evenodd">
        <g id="Personal_icon" fill="#45a018">
            <path d="M64.6126761,134.340493 C64.6126761,135.501408 65.5538732,136.443662 66.7147887,136.443662 C67.8757042,136.443662 68.8179577,135.501408 68.8179577,134.340493 C68.8179577,121.333803 77.4028169,109.629577 89.7630282,105.625 C92.6088028,106.922183 95.7598592,107.662676 99.0862676,107.662676 C102.426408,107.662676 105.588028,106.915845 108.442254,105.608099 C120.776056,109.555634 129.353521,121.285211 129.353521,134.340493 C129.353521,135.501408 130.295775,136.443662 131.45669,136.443662 C132.617606,136.443662 133.558803,135.501408 133.558803,134.340493 C133.558803,120.647183 125.264437,108.243662 112.978169,102.845775 C118.25669,98.7080986 121.666549,92.2919014 121.666549,85.081338 C121.666549,72.6302817 111.536268,62.5 99.0852113,62.5 C86.6341549,62.5 76.5038732,72.6302817 76.5038732,85.081338 C76.5038732,92.3066901 79.9274648,98.734507 85.225,102.87007 C72.915493,108.309155 64.6126761,120.691549 64.6126761,134.340493 L64.6126761,134.340493 Z M80.7091549,85.081338 C80.7091549,74.9478873 88.9517606,66.7052817 99.0852113,66.7052817 C109.218662,66.7052817 117.461268,74.9478873 117.461268,85.081338 C117.461268,95.2147887 109.218662,103.457394 99.0852113,103.457394 C88.9517606,103.457394 80.7091549,95.2147887 80.7091549,85.081338 L80.7091549,85.081338 Z" id="Imported-Layers"></path>
        </g>
    </g>
</svg>