<svg xmlns="http://www.w3.org/2000/svg" xmlns:xlink="http://www.w3.org/1999/xlink" version="1.1" x="10px" y="10px"
    viewBox="-10 -10 130 130" enable-background="new 0 0 100 100" fill="white" preserveAspectRatio="none" xml:space="preserve">
    <path d="M72,85H34c-2.2,0-4-1.8-4-4V39c0-0.9,0.5-1.9,1.4-2.9l11.6-11.6c0.7-0.7,1.8-1.5,2.9-1.5h27c2.2,0,4,1.8,4,4v54
    C77,83.4,74,85,72,85z M32,39v42c0,1.1,0.9,2,2,2h38c1.2,0,3-1,3-2V27c0-1.1-0.9-2-2-2H46v10c0,2.2-1.8,4-4,4H32z M33.4,37H42
    c1.1,0,2-0.9,2-2v-8.6L33.4,37z M66.6,76H39.9c-0.6,0-1-0.4-1-1s0.4-1,1-1h26.8c0.6,0,1,0.4,1,1S67.2,76,66.6,76z M67,66H40
    c-0.6,0-1-0.4-1-1s0.4-1,1-1h27c0.6,0,1,0.4,1,1S67.6,66,67,66z M67,57H40c-0.6,0-1-0.4-1-1s0.4-1,1-1h27c0.6,0,1,0.4,1,1
    S67.6,57,67,57z M67,47H40c-0.6,0-1-0.4-1-1s0.4-1,1-1h27c0.6,0,1,0.4,1,1S67.6,47,67,47z M67,38H53c-0.6,0-1-0.4-1-1s0.4-1,1-1h14
    c0.6,0,1,0.4,1,1S67.6,38,67,38z"></path>
</svg>
